<?xml version="1.0" encoding="utf-8"?>
<!-- Generator: Adobe Illustrator 21.0.0, SVG Export Plug-In . SVG Version: 6.00 Build 0)  -->
<svg version="1.1" id="Capa_1" xmlns="http://www.w3.org/2000/svg" xmlns:xlink="http://www.w3.org/1999/xlink" x="0px" y="0px"
	 viewBox="0 0 28.6 23.3" style="enable-background:new 0 0 28.6 23.3;" xml:space="preserve">
<style type="text/css">
	.st0{fill:#C82F1B;}
	.st1{fill:#4077BA;}
</style>
<g>
	<path class="st1" d="M28.3,8.5l-8.1-8.1c-0.3-0.3-0.7-0.3-1,0l-6.6,6.5l0,0L10,5.7C9.5,5.5,8.9,5.6,8.5,6l-4.4,4
		c-0.3,0.3-0.5,0.7-0.5,1.1v6.3c0,0.8,0.6,1.4,1.4,1.4h5.6l3.6,3.6c0.1,0.1,0.3,0.2,0.5,0.2c0.2,0,0.4-0.1,0.5-0.2L28.3,9.5
		c0.1-0.1,0.2-0.4,0.2-0.5C28.6,8.8,28.5,8.6,28.3,8.5z M14.7,20.9l-7.1-7.1l4.1-4.2l0.1,0l4.3,1.8l1.4-2.4L14,7.5l5.7-5.6L26.8,9
		L14.7,20.9z"/>
	<rect x="0" y="10" class="st1" width="2.5" height="8.8"/>
</g>
</svg>
